PathFileType	4	(X/Y/Z)	G:\Shared drives\HPL_Drive\Nord Sprinting Study\Kristen_Nord_test\Trimmed_Nord000006.trc
DataRate	CameraRate	NumFrames	NumMarkers	Units	OrigDataRate	OrigDataStartFrame	OrigNumFrames
200.00	200.00	      6	52	mm	200.00	767	      2043
Frame#	Time	C7			R_Shoulder			L_Shoulder			Sternum			R_humerus			R_elbow_med			R_elbow_lat			R_forearm			R_wrist_radius			R_wrist_ulna			L_humerus			L_elbow_med			L_elbow_lat			L_forearm			L_wrist_radius			L_wrist_ulna			r.ASIS			r.PSIS			r_IC			L.ASIS			L.PSIS			l_IC			r_thigh1			r_thigh2			r_thigh3			r_thigh4			r_thigh5			r_knee			r_mknee			r_shank_antsup			r_sh2			r_sh3			r_sh4			r_ankle			r_mankle			r_calc			r_5meta			r_toe			L_thigh1			L_thigh2			L_thigh3			L_thigh4			L_knee			L_mknee			L_shank_antsup			L_sh2			L_sh3			L_ankle			L_mankle			L_calc			L_5meta			L_toe			
		X1	Y1	Z1	X2	Y2	Z2	X3	Y3	Z3	X4	Y4	Z4	X5	Y5	Z5	X6	Y6	Z6	X7	Y7	Z7	X8	Y8	Z8	X9	Y9	Z9	X10	Y10	Z10	X11	Y11	Z11	X12	Y12	Z12	X13	Y13	Z13	X14	Y14	Z14	X15	Y15	Z15	X16	Y16	Z16	X17	Y17	Z17	X18	Y18	Z18	X19	Y19	Z19	X20	Y20	Z20	X21	Y21	Z21	X22	Y22	Z22	X23	Y23	Z23	X24	Y24	Z24	X25	Y25	Z25	X26	Y26	Z26	X27	Y27	Z27	X28	Y28	Z28	X29	Y29	Z29	X30	Y30	Z30	X31	Y31	Z31	X32	Y32	Z32	X33	Y33	Z33	X34	Y34	Z34	X35	Y35	Z35	X36	Y36	Z36	X37	Y37	Z37	X38	Y38	Z38	X39	Y39	Z39	X40	Y40	Z40	X41	Y41	Z41	X42	Y42	Z42	X43	Y43	Z43	X44	Y44	Z44	X45	Y45	Z45	X46	Y46	Z46	X47	Y47	Z47	X48	Y48	Z48	X49	Y49	Z49	X50	Y50	Z50	X51	Y51	Z51	X52	Y52	Z52	

767	3.830	1216.09570	536.30450	1256.61768	1332.91077	585.56433	1253.33667	1081.15417	574.90149	1268.49048	1203.04272	659.56671	1196.08960	1508.45093	556.08429	1228.24304	1638.24707	577.49854	1140.45593	1635.24817	518.13782	1192.12878	1638.11011	592.03711	1299.09448	1613.62476	685.15820	1370.38623	1655.40466	665.43658	1383.76636	884.01532	526.01935	1243.02197	769.40820	545.41357	1160.22070	771.45630	483.59689	1207.15759	802.32770	568.82025	1325.34326	842.59369	640.03748	1384.02173	793.26221	637.90869	1396.18298	1327.91125	575.50427	729.91064	1282.83105	430.95395	855.55469	1364.77051	539.34937	835.21808	1087.97839	560.17676	727.94598	1167.38843	425.66171	849.41150	1063.40234	528.66425	822.66144	1395.25330	461.53235	501.22018	1390.67651	420.95868	393.57504	1403.73376	366.83212	383.57846	1403.80359	361.98474	542.20490	1383.84766	322.50320	430.54941	1389.66614	345.74646	310.15958	1263.13733	331.80347	321.66843	1401.58252	208.54994	309.10944	1380.95593	91.26849	320.35019	1404.60547	213.09157	385.46375	1383.68506	101.14465	402.39084	1358.96558	-71.09359	373.20859	1283.54944	-50.68642	342.58530	1301.52759	-83.83557	433.60199	1357.88696	-166.08847	284.56036	1323.49255	-141.55721	231.81229	1019.35986	456.49457	502.88217	1021.76825	411.49518	369.07291	1025.88879	344.84158	549.35419	1032.30872	307.45529	417.17801	1011.85773	326.37781	326.30826	1141.59778	331.76126	307.59473	1001.63025	212.64073	307.49649	1001.30933	222.69807	398.13339	1017.58026	101.34722	402.52145	1036.03577	-78.28247	372.17392	1113.46973	-51.56665	347.22067	1085.80371	-84.91448	430.85269	1041.70044	-165.79811	267.48233	1085.21118	-138.90897	219.06976	
768	3.835	1216.13684	536.70258	1256.53064	1333.05066	586.02667	1253.10181	1082.19849	575.38708	1268.37219	1203.09119	659.92859	1195.91614	1508.48120	556.43970	1228.11743	1638.27893	577.84662	1140.30603	1635.30762	518.51910	1191.94116	1638.13086	592.39130	1299.00500	1613.72766	685.48663	1370.24658	1655.49854	665.80286	1383.57239	883.99976	526.40668	1242.98865	768.43030	545.48639	1160.69775	771.46838	483.95233	1207.13171	802.25159	569.05365	1325.28748	842.64233	640.45453	1383.84070	793.30341	638.35370	1396.05139	1327.88672	575.68335	729.80444	1282.85962	431.20422	855.51434	1364.78967	539.62115	835.13751	1087.95435	560.27637	727.91522	1167.44055	425.97751	849.14502	1063.43225	528.89246	822.58325	1395.20947	461.71985	501.20544	1390.65649	421.00299	393.52527	1403.75793	366.91586	383.58496	1403.82886	362.11334	542.17645	1383.91602	322.57507	430.49835	1389.78467	345.78143	310.51123	1263.14404	331.80725	321.69165	1401.65076	208.54927	309.13947	1381.01379	91.27627	320.37997	1404.66187	213.15198	385.45065	1383.72839	101.15682	402.38452	1359.05029	-71.07296	373.25421	1283.61035	-50.67620	342.62363	1301.60901	-83.77859	433.66751	1357.91748	-166.09125	284.70462	1323.50232	-141.60153	231.95255	1018.63776	456.77362	503.45544	1020.82568	411.59369	368.70053	1025.82349	344.23807	548.55505	1032.30615	307.46091	417.21680	1011.86731	326.41196	326.27209	1141.60498	331.80829	307.59750	1001.65448	212.71387	307.37744	1001.35791	222.68257	398.13220	1017.58551	101.38910	402.56723	1036.06824	-78.23604	372.20517	1113.48242	-51.53143	347.30438	1085.82593	-84.83990	430.87451	1040.22498	-165.08548	269.29218	1085.37134	-138.91399	219.05449	
769	3.840	1216.25806	536.97498	1256.38953	1333.10645	586.44250	1253.00415	1082.30347	575.85052	1268.16406	1203.12354	660.31647	1195.79565	1508.48022	556.79102	1228.04065	1638.30042	578.21021	1140.17786	1635.29700	518.85754	1191.83081	1638.27905	592.86804	1298.87805	1613.82300	685.82910	1370.06384	1655.56104	666.12531	1383.44775	884.06268	526.82141	1242.89856	768.46082	545.82312	1160.57056	771.50012	484.29324	1207.05359	802.23596	569.45142	1325.23291	842.68909	640.90912	1383.71338	793.32556	638.75323	1395.98340	1327.84570	575.86060	729.77325	1282.86841	431.47311	855.55792	1364.75049	539.89014	835.08514	1087.97717	560.45398	727.77625	1167.40173	426.15891	849.42883	1063.43616	529.10181	822.48254	1395.26074	461.80289	501.14691	1390.69751	420.33014	393.41345	1403.72131	366.98718	383.56415	1403.81958	362.19653	542.16095	1383.91516	322.64755	430.49908	1389.62048	345.79285	310.30673	1263.13538	331.80219	321.70187	1401.67993	208.54953	309.17996	1381.08142	91.29298	320.45245	1404.65479	213.14590	385.48553	1383.79578	101.22663	402.41345	1359.13892	-71.03682	373.32233	1283.70630	-50.63189	342.64459	1301.60876	-83.73376	433.76581	1357.96448	-166.10146	284.84238	1323.51514	-141.59239	232.21277	1019.34210	456.61017	502.77628	1016.92792	409.92963	372.08896	1025.82849	344.38406	548.56110	1032.32898	307.51578	417.21030	1011.58923	326.37875	326.24155	1141.62671	331.81461	307.59149	1001.73096	212.70442	307.38928	1001.24945	222.38850	397.97809	1017.65198	101.49320	402.53198	1036.09973	-78.20260	372.24789	1113.52856	-51.53329	347.43103	1085.79224	-84.74796	430.97452	1040.33948	-165.11594	269.40179	1085.86475	-139.01712	219.10779	
770	3.845	1216.24573	537.37939	1256.36511	1332.99023	586.71490	1253.00830	1082.13477	576.10205	1268.29480	1203.13464	660.71027	1195.66479	1508.49170	557.16400	1227.94080	1637.50977	578.80109	1140.29224	1635.28296	519.20026	1191.70142	1638.20422	593.10681	1298.76318	1613.90430	686.20441	1369.91150	1655.61719	666.45862	1383.32227	884.06543	527.17242	1242.84534	768.50977	546.15442	1160.43445	771.53278	484.63425	1206.95288	802.26642	569.88959	1325.09668	842.65533	641.28748	1383.66479	793.35797	639.17126	1395.87256	1327.84082	576.01996	729.67786	1282.83936	431.69257	855.61707	1364.71021	540.15485	835.10321	1087.98206	560.63074	727.59991	1167.38245	426.39923	849.45850	1063.46399	529.34882	822.35815	1395.25171	461.88724	501.13019	1390.67993	420.35074	393.31955	1403.75916	367.04947	383.57031	1403.89099	362.32050	542.18561	1383.88489	322.71088	430.55313	1390.13770	345.75000	310.69397	1263.15088	331.82449	321.71036	1401.71533	208.57072	309.21960	1381.11206	91.28643	320.47040	1404.66101	213.17439	385.47614	1383.87207	101.23525	402.42487	1359.15356	-71.02897	373.48962	1283.78455	-50.65506	342.68326	1301.62061	-83.69454	433.85931	1358.01318	-166.10036	284.96475	1323.54944	-141.63914	232.29688	1018.69611	456.91599	503.35718	1021.75159	411.57953	368.96954	1025.87671	344.44299	548.56525	1032.32690	307.59451	417.21271	1011.88171	326.45889	326.27328	1141.60925	331.85281	307.59982	1001.74719	212.80635	307.39008	1001.23425	222.39055	397.99414	1017.61188	101.50862	402.52612	1036.08679	-78.16230	372.29553	1113.52893	-51.48590	347.50507	1085.72681	-84.67673	431.11008	1040.42273	-165.12347	269.48938	1085.95398	-139.05789	219.26566	
771	3.850	1216.18994	537.89282	1256.34351	1333.01697	587.12604	1252.91309	1081.26477	576.53601	1268.23279	1203.14648	661.11578	1195.51733	1508.50012	557.53845	1227.85242	1637.50195	579.18268	1140.14893	1635.29614	519.56299	1191.59363	1638.23523	593.42444	1298.64587	1614.00391	686.50665	1369.77051	1655.66187	666.80841	1383.19128	884.07684	527.59045	1242.78918	768.57672	546.47607	1160.30945	771.51953	484.96976	1206.92053	802.31592	570.25653	1324.95300	842.71460	641.74274	1383.51221	793.34937	639.63947	1395.83704	1327.84338	576.20618	729.59174	1282.84033	431.97247	855.62915	1364.69543	540.39612	835.02759	1087.99512	560.81183	727.51868	1167.29785	426.67041	849.50848	1063.47021	529.55206	822.27179	1395.28271	461.97562	501.11636	1390.70715	420.42072	393.30420	1403.77979	367.11029	383.58539	1403.88574	362.37704	542.17181	1383.90845	322.74707	430.59592	1390.11096	345.79404	310.83133	1263.14709	331.82388	321.71997	1401.75110	208.58215	309.24847	1381.11401	91.32528	320.54468	1404.69617	213.19003	385.50113	1383.88025	101.22424	402.46024	1359.20642	-71.00764	373.61636	1283.81213	-50.64517	342.73325	1301.59436	-83.68797	433.99780	1358.03723	-166.12639	285.14990	1323.57751	-141.67558	232.47681	1019.36444	456.82254	502.69931	1021.79602	411.73593	368.71005	1026.00171	345.17944	549.33954	1032.30920	307.60815	417.25375	1011.88037	326.48471	326.24905	1141.62866	331.87250	307.59280	1001.71674	212.76019	307.44043	1001.33478	222.77687	398.15823	1017.65131	101.51652	402.57660	1036.10364	-78.13007	372.31400	1113.52991	-51.46976	347.63806	1085.66113	-84.59506	431.20459	1040.48486	-165.15567	269.54544	1086.01794	-139.08841	219.27124	
772	3.855	1216.21899	538.32117	1256.25452	1333.00964	587.52252	1252.82556	1081.32813	576.92517	1268.08777	1203.15356	661.52734	1195.40479	1508.49573	557.88525	1227.71582	1637.47693	579.56030	1140.02332	1635.29614	519.90881	1191.46985	1638.24829	593.77686	1298.52808	1614.08960	686.86707	1369.61548	1655.69788	667.14594	1383.08557	884.07202	527.95819	1242.70972	768.96649	546.99304	1159.91516	771.50867	485.34479	1206.86157	802.28638	570.65814	1324.90808	842.76007	642.12354	1383.41650	793.39752	640.03729	1395.69873	1327.85254	576.41296	729.49170	1282.83154	432.18848	855.64398	1364.70703	540.64581	834.99994	1087.98877	560.95239	727.38452	1167.28247	426.86008	849.27136	1063.49829	529.79858	822.12579	1395.27393	461.98474	501.01953	1390.70032	420.46198	393.28076	1403.74463	367.13696	383.56247	1403.90259	362.51215	542.17731	1383.93274	322.80640	430.60013	1389.48987	345.90433	310.58698	1263.14661	331.85175	321.70947	1401.77710	208.60876	309.28958	1381.19141	91.31970	320.58560	1404.68201	213.16920	385.53998	1383.94141	101.23187	402.48584	1359.26660	-70.97933	373.73468	1283.88391	-50.69063	342.73270	1301.65662	-83.62553	434.04858	1358.08435	-166.14035	285.30206	1323.53149	-141.65962	232.77061	1019.36951	456.88712	502.67007	1021.58832	411.41895	368.80356	1025.98376	345.27380	549.37622	1032.30823	307.62817	417.29767	1011.61993	326.43259	326.16998	1141.65369	332.10776	307.73666	1001.69293	212.73671	307.35556	1001.29950	222.79149	398.18307	1017.65356	101.46952	402.66330	1036.09558	-78.11498	372.37598	1113.56335	-51.45056	347.74567	1085.56702	-84.52340	431.26892	1040.57336	-165.19765	269.63486	1086.08435	-139.13295	219.29492	
